<svg width="112" height="112" viewBox="0 0 112 112" fill="none" xmlns="http://www.w3.org/2000/svg">
<path d="M56 9.33334C30.47 9.33334 9.75 30.24 9.75 56C9.75 81.76 30.47 102.667 56 102.667C81.53 102.667 102.25 81.76 102.25 56C102.25 30.24 81.53 9.33334 56 9.33334ZM74.6387 47.6001L53.0399 69.3466C52.3924 70.0466 51.5137 70.3734 50.5887 70.3734C49.7099 70.3734 48.8312 70.0466 48.1374 69.3466L37.3613 58.4735C36.02 57.1201 36.02 54.8799 37.3613 53.5265C38.7025 52.1732 40.9225 52.1732 42.2637 53.5265L50.5887 61.9268L69.7363 42.6534C71.0775 41.2534 73.2975 41.2534 74.6387 42.6534C75.98 44.0067 75.98 46.2001 74.6387 47.6001Z" fill="#6158FF"/>
</svg>
