<svg width="24" height="24" viewBox="0 0 24 24" fill="none" xmlns="http://www.w3.org/2000/svg">
<path fill-rule="evenodd" clip-rule="evenodd" d="M3.6364 20.2092C3.28492 19.8577 3.28492 19.2878 3.6364 18.9364L18.9099 3.66285C19.2614 3.31138 19.8312 3.31138 20.1827 3.66285C20.5342 4.01432 20.5342 4.58417 20.1827 4.93564L4.90919 20.2092C4.55772 20.5606 3.98787 20.5606 3.6364 20.2092Z" fill="#333333"/>
<path fill-rule="evenodd" clip-rule="evenodd" d="M3.63655 3.6364C3.98802 3.28492 4.55787 3.28492 4.90935 3.6364L20.1829 18.9099C20.5343 19.2614 20.5343 19.8312 20.1829 20.1827C19.8314 20.5342 19.2615 20.5342 18.9101 20.1827L3.63655 4.90919C3.28508 4.55772 3.28508 3.98787 3.63655 3.6364Z" fill="#333333"/>
</svg>
